<svg xmlns="http://www.w3.org/2000/svg" width="211" height="14.115" viewBox="0 0 211 14.115"><defs><style>.a{fill:#fff;}</style></defs><g transform="translate(1826.407 -3252.254)"><path class="a" d="M-1822.3,3252.639a3.422,3.422,0,0,1,2.423.864,2.9,2.9,0,0,1,.932,2.226,2.863,2.863,0,0,1-.944,2.229,3.572,3.572,0,0,1-2.488.852h-1.979v4.459h-2.054v-10.63Zm-.51,4.565a1.973,1.973,0,0,0,1.282-.376,1.357,1.357,0,0,0,.46-1.115q0-1.468-1.887-1.469h-1.4v2.96Z" transform="translate(0 -0.248)"/><path class="a" d="M-1773.861,3252.639l4.695,10.63h-2.169l-1.1-2.587h-4.725l-1.027,2.587h-2.154l4.383-10.63Zm-2.679,6.483h3.432l-1.8-4.208Z" transform="translate(-29.644 -0.248)"/><path class="a" d="M-1715.355,3252.639a3.618,3.618,0,0,1,2.382.761,2.37,2.37,0,0,1,.921,1.9,2.205,2.205,0,0,1-.384,1.286,2.611,2.611,0,0,1-1.115.883v.091a3.053,3.053,0,0,1,1.731.993,2.628,2.628,0,0,1,.62,1.739,2.832,2.832,0,0,1-.453,1.579,2.786,2.786,0,0,1-1.255,1.046,4.7,4.7,0,0,1-1.891.35h-4.451v-10.63Zm-.548,4.413a1.965,1.965,0,0,0,1.286-.388,1.322,1.322,0,0,0,.472-1.081,1.207,1.207,0,0,0-.434-.978,1.724,1.724,0,0,0-1.141-.361h-1.476v2.808Zm.479,4.611a2.641,2.641,0,0,0,1.575-.392,1.341,1.341,0,0,0,.532-1.153,1.26,1.26,0,0,0-.529-1.069,2.333,2.333,0,0,0-1.419-.392h-1.933v3.006Z" transform="translate(-68.961 -0.248)"/><path class="a" d="M-1663.511,3252.639v9.024h5.159v1.605h-7.213v-10.63Z" transform="translate(-103.511 -0.248)"/><path class="a" d="M-1611.344,3252.254a6.392,6.392,0,0,1,2.972.681,5.237,5.237,0,0,1,2.1,1.963,5.288,5.288,0,0,1,.784,2.812,5.279,5.279,0,0,1-.764,2.766,5.257,5.257,0,0,1-2.1,1.978,6.349,6.349,0,0,1-3.009.7,6.313,6.313,0,0,1-3-.715,5.284,5.284,0,0,1-2.1-1.967,5.259,5.259,0,0,1-.753-2.766,5.344,5.344,0,0,1,.753-2.747,5.23,5.23,0,0,1,2.077-2A6.333,6.333,0,0,1-1611.344,3252.254Zm-3.751,5.456a3.786,3.786,0,0,0,.479,1.9,3.33,3.33,0,0,0,1.336,1.309,3.993,3.993,0,0,0,1.936.464,3.7,3.7,0,0,0,2.69-1.027,3.535,3.535,0,0,0,1.054-2.648,3.832,3.832,0,0,0-.475-1.906,3.287,3.287,0,0,0-1.339-1.313,4.042,4.042,0,0,0-1.944-.464,4.017,4.017,0,0,0-1.944.468,3.251,3.251,0,0,0-1.328,1.309A3.877,3.877,0,0,0-1615.1,3257.71Z" transform="translate(-134.626)"/><path class="a" d="M-1510.179,3252.639a3.424,3.424,0,0,1,2.423.864,2.9,2.9,0,0,1,.932,2.226,2.863,2.863,0,0,1-.943,2.229,3.572,3.572,0,0,1-2.488.852h-1.978v4.459h-2.055v-10.63Zm-.51,4.565a1.972,1.972,0,0,0,1.282-.376,1.357,1.357,0,0,0,.461-1.115q0-1.468-1.887-1.469h-1.4v2.96Z" transform="translate(-200.867 -0.248)"/><path class="a" d="M-1461.742,3252.639l4.695,10.63h-2.168l-1.1-2.587h-4.725l-1.027,2.587h-2.154l4.383-10.63Zm-2.679,6.483h3.432l-1.8-4.208Z" transform="translate(-230.512 -0.248)"/><path class="a" d="M-1403.3,3252.639a3.562,3.562,0,0,1,2.442.829,2.741,2.741,0,0,1,.943,2.161,2.7,2.7,0,0,1-.468,1.579,3.1,3.1,0,0,1-1.389,1.062,3.087,3.087,0,0,1,.905.746,9.557,9.557,0,0,1,.982,1.59q.974,1.933,1.446,2.663h-2.29a12.819,12.819,0,0,1-.639-1.118,24.364,24.364,0,0,0-1.293-2.287,3.086,3.086,0,0,0-.791-.837,1.57,1.57,0,0,0-.875-.248h-.746v4.489h-2.054v-10.63Zm-.464,4.535a1.859,1.859,0,0,0,1.267-.4,1.391,1.391,0,0,0,.46-1.1,1.308,1.308,0,0,0-.456-1.092,2.055,2.055,0,0,0-1.3-.361h-1.278v2.959Z" transform="translate(-269.829 -0.248)"/><path class="a" d="M-1345.872,3252.639v1.605h-4.817v2.793h4.611v1.6h-4.611v3.021h4.923v1.605h-6.978v-10.63Z" transform="translate(-304.831 -0.248)"/><path class="a" d="M-1302.67,3252.639v10.226a3.944,3.944,0,0,1-.913,2.728,3.085,3.085,0,0,1-2.42,1.024h-.2a1.451,1.451,0,0,1-.2-.015l-.145-1.773q1.826,0,1.826-2.138v-10.052Z" transform="translate(-334.559 -0.248)"/><path class="a" d="M-1259.319,3252.639l4.7,10.63h-2.169l-1.1-2.587h-4.725l-1.027,2.587h-2.153l4.383-10.63Zm-2.678,6.483h3.432l-1.8-4.208Z" transform="translate(-360.783 -0.248)"/></g></svg>