<svg xmlns="http://www.w3.org/2000/svg" viewBox="0 0 2978.13 3004.51"><defs><style>.cls-1{fill:#fff;}.cls-2{fill:#fff6d5;}.cls-3{fill:#164450;opacity:0.49;}.cls-3,.cls-4{isolation:isolate;}</style></defs><g id="Capa_2" data-name="Capa 2"><g id="Capa_1-2" data-name="Capa 1"><rect class="cls-1" x="2.25" width="2973.63" height="3000"/><circle id="path2393-1" class="cls-2" cx="1272.43" cy="1024.91" r="530.39"/><g id="path1476-87"><path d="M560,2059.7c150.79-15.81,289.5-80.63,430.83-129,68-30.93,142.26-7.68,198,36.53,100.68,70.24,233.47,115.32,352.3,62.3,52.18-19.15,143.45-37.08,170.31,17.54-55.59-15.81-132.11,22.79-196.83,19.22-103.73,12.41-207.34-6.9-298.58-55.36-71.82-20.33-141.39-58.13-217.66-59.45-51.57,30.26-115.44,38-161.81,79.6-134.21,64.55-288.42,56.57-432.32,81.28-106.7,21.41-206.71,67.93-317,74.48-25,8.95-61.21,1.76-87.18,7.84v16.57c87.32-7.48,179-19.13,262.19-46.14,120.66-49.11,247.49-47.1,374.49-71,91.24-8.33,183.08-31.26,257.24-87.32,49.24-7.93,88.56-47.6,138.69-42.17,61.48,19.51,125,37.74,185.75,59.87,114.83,65.06,253.37,64.54,380.58,43.65,35.8-12.07,99.11-17.2,111.89,15.39-32.19,28.09-125.84-9.13-180.18,19-140.56,6.4-283.93-13.49-409.81-78.83-71.45-54.42-155.8,1.57-219.06,42.68-33,32.72-80.92,26.25-119.4,46.51-66.76,6.3-128.93,31.58-197.2,25.37-134-13.51-247.3,64.63-376.38,81.17C144.12,2237,61.67,2224.42,0,2241.6v11.33c124.93-7.18,254.16-18.21,372-64.36,103.46-48.4,219.74-28.41,328.88-48.7,51.6-6.24,100.31-24.26,151-35.27,76.47-28.22,147.27-108,235.74-84.63,136.07,76.9,294.76,105.25,449.62,94.09,50.15-7.53,96.23-19.95,151.79-6.07,18.33,62.41-59,14-104.85,34.3-151.87,14.31-309.23.13-448.85-63.95-83.61-43-167.45,4.89-245.23,34.76-45.74,13.9-67.18,51.46-118.41,35.46-111.89,3.51-219.75,31.37-327.9,59.53-86.52,31-173.44,62.43-263.83,83.27-49.46,19.36-137.6-4-179.87,11V2316c136,7.24,272-25.16,395.69-78.78,109-29.88,218.36-64.12,331-68.23-62.9,21.83-127.23,39.56-188.42,65.19-42.21,21.62-77,55.85-122.43,35.74C324,2287.65,246,2349.59,149.35,2351.49c-34.61,15.25-107.7.92-149.35,12.08v20.8c76.52-19.84,164.24-9.42,240.54-37,63.77-13.13,115.79-61.19,182.39-59.23,12.45,22.23-104.85,71.57-147.31,79.11C181.75,2378.81,84.36,2398.47,0,2442.08v29.1c15.58-8.6,33.49-18.33,47.1-15.63,78.85-51.74,175.29-39.81,261.47-65C420,2348.7,511.18,2266,626.48,2232.6c95-31.75,193.75-51.73,291.65-67.37,92.24-22.29,148.32,61.55,210.76,111.06-41,16.26-84-65.16-135.65-71.55-129.92-29.45-259.35,16.92-378,63.13-111.63,25.05-183,128.93-295.86,149.51-110.94-7-212.7,36.15-313.63,75-2,.44-3.91,1-5.75,1.57v19.56c82-34.88,165.05-75.15,254.61-77.33,114.27,11.68,198.56-70.89,288.2-125.58,144.69-56.58,300.22-128.17,458.18-88,32.56,26.46,122.12,52.76,106.34,99.13-31.39-21.24-67.27-35-99.42-54.91-75.25-32.28-161.16-6.09-240.34-10.48C651.39,2283.31,543,2341.28,444.3,2407.16c-91,79.06-215.92,78.87-328.91,90.1-36.24,9.57-79.64,26.06-115.39,36.28v19.73c13.85-7.27,29-16.36,38.42-16.48,78.77-39.1,169.63-27.58,251.4-43.64,103.71-13.77,175.86-95.32,267.43-138.09,103.94-55.41,216.84-101.94,338-86.36,59.14-18.34,109.29,12.87,158.28,39.21,64.85,5.45,55.64,83.43-4,34.61-112.86-37.4-241.59-48.25-356.63-14.74-84.67,50.51-182.39,78.06-256.59,145.18-127,91.63-292.79,71.66-436.26,120v18c22.44-7.28,49.76-17.31,60.17-17.75,46.69-15.13,92.53-16.48,136.45-28.27,115.28-8.21,228.68-51.15,313.74-131.3,65.6-27.69,128.17-61.14,191.64-92.37,105-34,223.83-16.33,329,8.83,100.52,36,53.09,46.05-30.95,23.65-146.64-36.18-305.78-16-434.52,61.95-162.82,116-361.3,164-555.71,195.46A43.51,43.51,0,0,0,0,2627.76v25c105.52-27.94,214.82-40.48,318.22-79.19,129.08-30.86,229.86-126.32,352.72-169.83,86.94-34.78,180.48-38.64,273-26.65,60.83,20.64,141.66,5.87,188.24,53.66-69-2.68-136.66-27.54-205.37-33.47-100.37-16.78-200.54,13.94-290.85,58.7-117.22,77.94-247.2,131.8-382.8,167.74-84.52,18.16-167.6,52.86-253.14,61.07v19.13c27.32-4.76,63-14.8,77.79-19.86,167.87-47.6,342.45-82.16,492.66-173.13,112.89-79,254.09-121.36,390.11-96.34,72.91,31.89,157.44,18.28,226.74,47.82-25.4,27.63-136.26-4.49-195-11.88-132.45-30.53-257.92,25.24-376,75.87-143.36,71.25-290.79,137.79-448.56,171.94-44,17.09-123,15.88-167.72,29v15.84c140.06-22.22,280.26-53.69,411.35-107.37,132.93-54.43,259.09-131.64,400.43-165.33,119.75-42.43,239.62,22.47,360.69,16,113.18-10.35,36.88,39.15-46.5,17-92.42,7.95-184.66-28.68-277.36-9.84-132.07,34.19-248.84,117.16-379.82,158.66C318.87,2709.49,160.67,2757.12,0,2767.06v20.67c25-7.3,57.6-22.57,73.77-16.61,130.66-14.26,256.67-51.85,378-100.16,112.56-29.29,210-96.31,318.84-135.49a254.69,254.69,0,0,1,69.71-25c1.42.11,3.68,0,1.81-.36,79.7-16,165.92.7,246.1,9,66.78,16.68,136.83-16.95,200.81,1.14-95.31,27.82-199.52,20.39-298.27,17.67C853,2508.35,732.18,2587.65,613,2643.75c-157.15,85.53-336,114.26-506.57,160.65C76.54,2824,34.26,2817.82,0,2818.26v17c23.24-3.2,54.29-1.87,72.49-8.24,106.69-28.73,214.32-54.79,321.78-83.23,182.55-39,329.54-172.5,515-198.44,114.08,12.32,227.77,11.84,342.52,1.6-57.14,27.35-156,19.75-228.22,29.53-90.67.83-181.55,4.83-266.77,41-117.46,57.83-231.11,126.25-360.55,152.66-90,37.62-185.42,54.26-280.76,72.22-13.32,4.7-79.2,10.11-115.53,18.09v16.72c67.24-16.65,134.2-30.72,203.12-37.07,105.12-21.47,206.06-59.46,308.06-91.09C608.75,2720.47,691,2654.08,788,2623.76c82.17-42.52,173.24-22.23,260.77-35.11,89.43,3.32,178.14-17.64,262.4-34.52,65.53-6.3,3.69,7.42-25.89,12.06-74.17,3.62-145.72,47.88-219,34.68-128.91,18.37-267,26-381.84,94.1-79.9,60.82-176,90.78-272,121.33-95.52,35.23-195.53,60.64-297.9,61.43-22.48,10.16-80,5.09-114.63,12v31.17c50.39,4.06,114.13-12.75,166.14-15,118.43-8.93,229.23-53.31,339.41-90.54,131.92-69.58,284.86-79.48,424.15-126.21,128.51-44,255.29-89,390.2-101.67,20.8-13.3,121.69.54,55.8,10.2-90.22,24-183.48,38.92-272.29,68.83-138.47,61.54-290.77,76.74-432,129.61-109.62,18.73-209.11,72.36-316.4,102.33-97.12,21-196.78,35.66-295.25,41.79-28.26-4.86-48.08-5-59.72-2.93v15.24c11.63,3.45,31.37,5.62,59.22,4,33.86,9.06-22.47,4.65-59.22,13.45v14.86c125.72-21,256.31-4.92,380.71-43,109.82-17.83,205-79.47,312.29-102,98.3-28.09,193.64-65.25,293.52-89.27,112.23-7.8,204.34-81.41,312-98.84,28.93.67,108.34-34.13,117.54,2.63-79.18-3.49-155,25.69-223.44,62.68-52.31,46.79-129.55,48.28-195.68,59.76-73.22,37.43-153.72,46.76-231.42,71.13C632.86,2887.24,505.1,2937.64,372.55,2977,249,2990.19,123.17,2989.64,0,2991.91v7.63H274.91c62.6-2.28,124.55-7.72,182-35.61,65.53-15.27,124.72-46,188.51-61.35,91-29.85,180.63-64.14,276.19-78.91,70.54-46,159.39-36.92,236.67-67.1,46.75-32.85,100.41-58.32,156.07-74.62,29.5-7.76,97-32.42,101,8-58.41,15.87-128.77,19.75-182.09,59-78.44,47.91-181.44,35.38-253.28,98.81-126.08,15.77-243.68,66.43-365.62,100.82-37.38,20.4-150.7,32.56-166.76,50.95h41.16c78.77-19.9,156.09-46.56,234.34-69.14,82.23-37,171.4-51.44,258.57-68.58,50.39-23.75,94.93-62.53,155.09-63.66,79-2.5,133-73.6,209.78-77.61,40.84-18.82,80.47-2,32.84,39.65-46.65,15.93-102.1,37.47-155.18,45.33-76.09,16-142.44,55.92-210.61,89.63-86.11,2.77-165.16,35.7-246.39,60.88-43.51,17.79-97.25,25.54-141.62,43.5h49.32c8.13-2.73,16.2-5.4,24.11-7.84,84.28-23.86,166.65-59.56,252.09-74.92,81,7.52,135.66-55.72,207.75-77.45,24.14,3.71,88.28-43.41,90-13.8,25.55-23.84,68.5-28.56,102.36-38.28-49.77,51-115.59,81.22-175.64,117.38-73,30.11-157.2,18.55-234,43.45-30.15-2-102.8,30-129,51.46H836c72.59-41.85,171.53-47.32,254.88-62.12,6.09-1.94-68.09,37.84-98.06,62.12h32.9c20.27-15.36,42.37-31.73,48.4-15.06,22.94-4.62,47-5.7,71.3-4.09-.87,4.35,11.27,5,.14,0,31.78,2.13,63.84,9.07,94.17,19.15H1284c-28-26.71-90.7-18-127-32.76-53.62,6.58-93.44-9.32-27.65-14.79,75.74,11.22,169.83,9.27,254.45,21.37,21.7-3.08,43,12.55,61.3,26.18h27c-59.5-57.34-157.67-44.57-234.25-51.07-127.62-2.67-10.76-32.55,49.67-21.66,79-7.73,156.07,9.69,226.72,43.86,8.61,5.51,31.76,17.85,46,28.87h26.25c-3.25-1.79-6.76-3.68-10.72-5.75-94.26-73-218.24-89.95-334.79-80.13-77.7,15.6-15.37-19.82,9.18-32.79,21,2.7,55.8.87,88.41,1.86,109.56.8,227.83,11.88,317,80.34,19.91,10.5,32.25,24.76,41.69,36.47h31.73c-22-17.33-54.11-38.44-65.85-46.87-100.69-77.45-233.09-83-355.62-84.79-66.9,5.18,16.14-20.82,27.62-42.67,69.86-5,141,9.19,211,21,91.49,23.3,156.87,99.31,232,153.37h35.23c-45.68-23.75-91.84-57.14-128.44-94.4-89.25-83.22-214.49-86.14-328.36-97.14,35.57-48.26,106.75-1.57,157.88-6.68,81.9,10.53,145.9,61.18,209.81,109.38,43.78,46.8,105.17,66.92,163.13,88.84h41.18c-77.73-25.34-163.08-57.67-223.71-119.68-83.4-83.78-202-94.68-312.35-109.13,14.65-9.72,18.69-45.88,40.66-46.37a24.73,24.73,0,0,1,7.43,1.07c97.07,37.49,200.94,63.63,289.56,119.38,77.28,66.63,173.56,98.13,258.92,150.25,13.17.76,29.25,2.57,46.07,4.48h152.45c-52.18-20-127.66-2.8-185.94-18.79-69.69-31.79-138.89-66.26-206.31-103.32-75.49-70.35-174.57-100.44-269.21-135.56-23.21-23.16-118.55-12.84-87.47-56.9,65,20.13,133.35,36.4,193.17,69.59,38.72,10.39,83.76,36.05,111.1,53.06,71.37,45.16,147.35,79.82,219.08,124.24,32.95,19.65,87.31,17.49,115.61,24.16,103.46-1.95,207.28,6.72,310.65,19.54,31.17,2.55,75.56,9.57,109.94,9.35,40.35,7.94,80,.2,120.42,4.25,36-4.29,51.31,6,80.9,1.59,49.14-7.18,98.87-2.92,142.95,7.83a46.28,46.28,0,0,1,22.72,1h39.15c-24.77-33.44-107.25-18.81-155.23-29.14-159.47,7.63-317.61-4.52-476.64-22.32-116.58-18.1-251.16,17.64-351.41-56.23-110.53-57-213.13-128.69-330.57-172.67-43.38-28.25-138.12-21.61-147.76-67.45,80.76,30.77,163.67,57.17,242.85,92,68.81,42.05,152.92,46.25,216.78,98.1,38.76,34.52,84.18,53.34,136.22,55.79,64.56,7.95,134.3,10,202.15,16.14,32.41,2.1,70,14.11,94.73,19.65,75.35,7.87,156.07,20.11,230.79,7.07,50.77.15,103.78-5.17,153.14-1.58,57.57-3.24,113.69,10.08,167.79,19.48,26.43,7.24,59.94,10.13,90.8,18.52v-20.22c-37.17-8.49-79.25-12.4-116.56-19.72-177.36-40.59-358.91,18.41-536.5-23.07-121.39-34.41-255.12-7-372.12-53.37-56.27-45.15-120.07-79.91-190.78-95.86-105.05-54.11-220.75-87.88-327.3-135.85v0l-2.15-18c76.66,26.06,147.82,69.25,227.32,89.87,87.39,21.77,164.43,68,243.47,109,67.38,20.79,127.31,61.95,200,64.14,49.92,3.63,99.09,10.43,138.8,8.73,6,5.9,48.76-.72,56,9.6-6.05-3.44,42.85-3,57.42,4.53,21.71-3.78,76.17,8.51,110.85,8.56,28.76-5.54,61.1-5.9,92.94-6.95a2,2,0,0,0,2.1-.08c18-.61,35.74-1.47,52.59-3.66,81.93,7.19,165.91-10.36,247.39,14.59,35.05,2,70.11,12.23,103.75,28.18a83.13,83.13,0,0,0,12.82,3.24v-19.34c-28.77-8.53-59.83-23.47-89.12-25.58-107.14-24.46-216-15.78-324-13.78-121.09,23-240.32-15.1-361.63-14.66-97.91,1.46-190.22-25.45-279.34-63.33-100-55.48-202.7-105.67-314.52-133.54-61.91-30.69-135.41-51.82-191.15-88.94a1213.49,1213.49,0,0,1,197.37,63.25c108.2,34.93,210,84,313.3,131,27.91,13.24,63.09,21.28,95.76,28.76-2.31-1.48,4.59-.45,1.54.34,23,5.26,44.67,10.28,61.45,16.62,27.38-1.48,77.75,6.6,107.22,14.67,15,3.27,31.84,4.89,49,6h0c.13-.47,1.78-1.35,2.06-.13a6.08,6.08,0,0,1-.82.22c35.78,2.2,73.26,1.94,100.85,7.91,35.16-3.81,82.47,0,116.9.22,5.12-.78,10.22-1.48,15.32-2.17-.4,2.38,1.26.8,1.73-.24,93.27-12.4,182.79-9.24,272.75-9.66,13.63,2.93,64,8.65,54.69,13.49,23.41.65,52.71,17.05,74.86,23.73,14,11.05,52.32,8,61.92,18.29,3.86.31,19.76,2.48,33.87,5.35v-31.89c-44-8.75-87.08-26.44-130.72-42.18a2,2,0,0,1-.95,1.13c-1.25-.89-1.17-1.45-.72-1.72-8.11-2.92-16.25-5.77-24.42-8.48-124.88-19.64-251.8,5.95-377.39,6.45-62.13-9.9-137,6.63-190.95-17.54-79.86-14.71-159.12-40.21-239.2-59.85-81.84-5.31-164.16-17.65-231.4-67.58,103.23,24.94,213.15,19.69,314.48,49.89,18.3.5,62.73,23,74.29,25.19,43.36,4.36,88.45,21.34,133.59,23.66,43.25,12.31,112.21,14.35,167.65,29,37,1.62,120.89,19.4,133.32-10.38-89.53,3.36-176.67-12.93-264.94-26.86-151.42-16.88-290.32-84.38-444.18-85.4-77.76-18.11-162.89-12.7-233.12-54.86,83.54-6,162.72,22.14,245,23.07,99.89-16.9,185.87,39.7,281.14,52.75,126.77,42.95,256.16,69,391.48,66.1,47.93.07,97.26-2.15,116.31.86,63.31,9.17,131,15.59,186.94,34.43,31.7-.35,46.45,16.58,79.38,22.19a46.3,46.3,0,0,1,14.44,2.36v-16.11c-57.47-14.1-114.22-37.91-174.38-41.56-179.28-36.29-368.94,4.49-543.77-62-86.18-18.73-170-48.62-255.22-69.31C1904,2643,1807.07,2622,1707.25,2615.1c-80.76,10.08-153.42-23.42-227.88-48.4v0l-5.73-4c85.14,22.38,171.41,29.15,259.3,28.52,114.45,28.95,236.59,1.2,348.3,37.41,64,13.35,123.11,37.83,188.32,51.45,83.82,22.54,167.41,42.49,258.2,39.49,100.58-9.33,201.84-2,298.05,28.54,49,14.86,83.12,27,133.77,38.8,4.8,1.78,11.44,3.23,18.56,4.75v-16.79c-120.41-27.22-241.63-81.51-368.44-72-139.77,13.14-277.11-16-410.53-55.26-110.6-39.46-227-59.92-345.3-52.13-153.62-37.17-323.94-2-466.44-80.74h0l-4.49-6.35c98.46,40.92,209.63,38,314.86,42.72,127.4,17.74,262-6.91,386,30.76,135.09,43.73,275.62,66,415.17,83.11,73.79-13,145.43-4.07,216.26,12.07.07,4.46,5.48,2.13.14,0,63.78,14.54,126.9,34.9,190.33,50.59,22.16,6.69,49.15,12.63,72.44,22.41v-15.87c-117.64-34.55-236.18-72.33-357.85-89-195.93,13-388.24-34.89-575.41-88-198.22-25.57-401.4-6.19-598.57-43.1-90.87-17-167.76-75.66-256.88-94.09-125.28-33.05,12.62-32.29,60,2,86.3,43.85,175.39,88.33,274.49,89.21,159.18,13.4,320,3.37,478.48,19,138.82,16.95,271,66.23,407.95,88.87,124,15,252.1-5.85,372.68,35.16,64.27,21.82,132.16,41.21,195.12,65.82v-17.7c-51.37-15.6-106.39-34-157.09-52.66-138.77-53.63-288.91-30.29-433.55-49.88-128.34-24.17-252.61-68.25-382.89-84.77-164.4-17.14-332.37-.59-496.83-23.14-107.62,4.85-194.64-61.73-290.29-98.16-62,4.61-157.3-52.68-46.29-32,82.47,33.63,164.26,73.47,246.29,106.49,139.66,4.38,279.22,17.24,418.83,17.23,120.69,4.75,245.11,13.26,360.05,54.71,52.77,3.57,110.15,25.83,157.38,33,57.87,25.3,114.71,8.85,176.59,18.21,81.54-6.36,151-2.89,228,20.54,54.57,7.79,100.36,34.68,150.89,52.86,19.66,10,45.45,15,68.88,20.35v-16.79c-44.35-7.79-87.13-24.88-126.79-45.11.28-2.67,2.26-3.86,5.42-4,13.66-.67,49.38,18.12,64.29,20.72,10.7,7.11,34.7,10.46,57.08,15.63V2638.2c-46.38-8.06-90.07-32.14-136.81-40.21-91.42-42.27-193.24-47.76-292.21-49-133.25,5.14-262.17-34.92-389.9-66.49-156.81-51-323.22-55.41-487.06-51.24-110.16-2.93-224.21-7.15-329.18-42.86-69.81-22-136.25-68.07-203.49-85.25,3-11.67,8-15.65,14.06-15.61,13.39.09,32.18,19.65,47.35,19.61,159.93,97,353.31,120,537.64,104.73,140.47,1.18,279.77,10.24,415.91,46.69,98.34,36.34,206.84,56.93,307.09,68.27,63.83,6.75,149.7,2.65,222.47,10.74l9.58,1.77c-2,1.26,2.65,1.37,1.93.36,56.91,10.37,109.44,19.79,157.2,43.92,27.84,9.65,52.17,20.54,89.7,26.3,9.63,7.29,22.65,9.15,35.72,11.1v-36.73c-18-1.62-37.22-2.22-50.51-7.17-70.41-25.64-141.06-55.47-216.62-67.84-32.33-40-106.66-43.79-158-54.24-93.59-31-192.75-30.43-287.8-59.55-100.54-48.58-212.3-62.86-321.6-78.27-99-11.91-172.84-84.31-268.56-106.39-67.85-12.91,61.83-53.89,81.53-9.33,99.35,68.18,218,94.91,336.65,107.18,109.46,10.94,197.08,76.63,305.86,88.28,31.67.48,93,8.06,137.64,21.15,59.51,20.49,119.62,39,181.68,50.92,39.66-.19,81,30.47,112.48,39.64,46.37,18.42,96,40.85,147.25,50.22V2542.2c-48.67-9.27-99.64-28-145-49.11-79.66-44.26-172.1-42.2-255.46-76.46-96.84-35-202.72-25.17-298.58-63.6-96.69-51.12-207.59-55.57-312.4-79.09-97.82-9.54-173.89-77-263.45-108.22,2.92-5.11,14.31-22.22,21.58-30.15,57.1,21.21,103.65,67,166.12,76.58,99.9,34,206.92,41.86,307.52,70.37,3.94,2.23,7.91,4.29,11.91,6.26-.83,1.24,1,1.39,1.88.93,65.68,31.68,139.19,31.07,209.7,45.57,51.1,32.53,110,39.61,168.19,51.92,55.41,9.86,93.19,22.27,146.51,45,69.28,36.57,135.57,56.8,209.32,81.33,9.11,6.54,20.73,9,32.11,11.17v-18.88c-57.25-14.38-115.37-33.69-169.05-57.28-73.12-32.26-144-65.45-224.59-77.45-74.27-1.2-135.74-45.89-206.51-58.91-93.22,11.08-166.92-55.6-256.66-59.45-113.69-27.73-239-36.71-338.94-102.29-19.94-17.26-69.21-22.08-42.34-56.06,44.1,11.37,86.83,43.65,133,55.76,123.33,39.13,243.41,67.19,369.82,91.88a335.77,335.77,0,0,1,58.15,8c.55-.3,1.28-.46,1.46.33,90.75,20.44,176.61,70.27,271.89,71.91,143.22,26.43,272.56,98.13,403.76,162.86v-18.51c-121.23-58.19-239.11-120.83-370.77-153.44-97.6-1.83-185.5-38.87-276.16-69.19-164.46-31-330-60.35-486.8-120.81-33.44-20.44-111.23-26.7-96.2-78.54,55.51,64.13,152.72,59.52,230.31,76.17,98.6,16.88,200.87,61.09,293.49,73.8,96.29,15.56,184.06,58.31,281.23,67.64,72.69,4.15,140.32,36.28,202.55,73.57,59.8,30,119.64,56.8,182.37,77.07,8.84,9,24.93,12.13,40,15.41v-28.88a76.09,76.09,0,0,1-22.16-10.15c-121.45-27.19-218.31-105.56-332.52-148.93-84.83-13-170.48-17.81-251.09-48.63-120.37-34.82-242.12-56.52-361.26-91.25-58.84-7.88-121.52-33.52-176.31-33-37-24.21-94.5-39.37-105.58-84.48a1445.36,1445.36,0,0,0,214.35,73.79c119.77,43.57,248.17,34.63,368.83,74.45,93.92,42.31,197.48,50.64,298.3,58.67,115.24,48.1,225.73,120,350.66,151.4,5,2,10.93,4.53,16.78,6.92v-18.86c-108.57-23-210.31-77.59-308-129.58-54.62-33.75-117.74-25.67-178.78-34.73-97.73-3.88-181.29-61-278.18-70-134.39-11.32-265.23-44.33-392-88.73-33.58-20.57-88.6-20.35-103.32-59.46,54.67,9.33,116.07,40.43,173.55,57.68,146,68.59,313.45,53.24,460.67,115.52,107.34,34.59,224.74,32.43,332.85,66.26,99.54,38,189.36,104.2,293.24,130.88v-16.84c-88.93-18-167.71-72.31-248.37-112.22-105.28-42.15-221.35-46.2-332.74-67.59-66.5-21.63-131.49-47.54-201.53-59-168.8-10.72-326.28-76-481.16-138-16.93-67.56,71.3,22.77,108.2,20,165.85,79.59,352.4,86.18,531.17,109.12,78.08,36.69,165.19,46.79,250.73,45.77,127.38,22.89,243.59,118.6,373.7,154.82v-15.6c-146.61-36.19-264.39-156.36-421.31-151.82-108.92,8.42-200.09-65.36-307.93-59.11-168.63-10.19-335.58-47.84-487.56-122-30.87,3.07-74.11-64.86-24-46.12,130.67,66.39,276.63,95.31,423.35,96.75,122.79-1.94,226.66,82.48,351.18,67.77,148.48-13.25,262.86,91.58,395.59,136.67,14.23,4.1,46.11,18.17,70.64,24.87v-16.68C2855,2141.7,2751.59,2061.08,2633.55,2023c-108.41-25.22-227.25,2.78-328.42-54.93-148-45.75-312-13.75-456.53-76.22-33.78-23.09-122-30-119.38-69.81,93.22,29.94,188.14,56.29,284.91,73,108.5,23.58,220.31-10.67,327.31,10.07,86.19,48.3,185.84,43.59,280.12,59.44,93.13,42.81,182.05,99.87,281.84,131.27,14.46,3.86,48.34,21.86,74.73,30.68v-19.93c-77.83-16.2-148.57-56.71-222-86.59-66.25-40.07-132.27-81.27-213.45-78.61-89.66,6-165.06-45.09-249.87-59.74a990,990,0,0,1-455-41c-27.73-12.19-128-16-87.8-55.72,153.74,69.06,328,65.7,493.72,70,101.49-24,180.25,64.27,280.6,59.79,144.33-10.94,251.74,92.72,378,141.31,18.2.28,50.89,21,75.87,30.2v-17.08c-124-31.46-226-117.72-348-154-96.89-15.45-199-14.35-284.58-69.51-146.37-9.71-296.31,3.55-441.6-26.21-42.51-15.13-207.08-23.17-108.36-82.63,133.93,79,297.58,75,448.05,69.83,99.92-11.36,184.27,63.17,284.74,59.84,132.73,5.36,240.51,85.21,359.9,132.71,20.73,4.51,61.07,23.43,89.85,31.84v-16.36c-143.78-30.19-260.54-137.81-408.78-154.83-93.47-7.1-179.74-39.43-268.56-64.85-117.83-71.85-265.76-54.52-396-91.45-88.89-30.87,118-59.5,149.14-30.18,104.64,15.77,194.32,70.88,292.56,106.76,110.37,49.31,235.46,45.71,346.61,90.28,76,40.65,155.45,78.87,242.07,94.59,16.69,7.58,31.37,11.67,43,13.45V1960a298.08,298.08,0,0,0-38.46-8c-106.13-12.13-191.06-77.17-288.58-111.92-109.74-21.25-220.29-39-325-80.21-118.71-58.75-244.79-111.15-380.74-107.7,31.59-59.38,102.16-58.34,159.62-38.36,114.42,44.61,214.65,119.31,326.85,168.79,106.08,48.76,230,20.71,333.91,72,65.64,41.51,139.25,58.74,212.42,79.13v-14.14c-34.66-14-87-29.93-103-25.62-87.66-41.47-175.36-95.81-277.57-86.9-154.36-9-283.83-97.85-414-172.07-46.08-62.63-202.84-4-188.46-80.36,120.7-24.4,215.59,62.28,318.19,106.8,103.17,70.67,223,108.29,346.21,123.77,117.62-4.93,211.2,72.26,316.35,110.77.87.19,1.35.26,2.18.44v-14.71c-36.28-15.81-90-36.81-105.72-46.17-94-65-211.27-59.3-318.68-81.56-143-32.62-262.32-123.94-392.49-185.48-36.3-45.36-167.19,1.78-158.3-47.37,64.82-38.55,150.11,4.1,215.73,29,129.8,79.36,259.5,182,419.2,183.39,121.84,8.46,248.81,40,337.54,129.46,1,.58,1.74.9,2.72,1.44v-23.62c-15.9-12.64-33.76-24.82-45.92-30-134.89-106.52-317-63.82-467.17-128.4-130.84-56.16-235-170-381.72-188.25-135.31,1.62,53.63-97.41,108.26-27.82,127.27,25.74,210.61,133.36,326.37,183.43,95.93,53.23,208,46.27,308.37,84,42.75,12.11,117.86,85.81,151.81,82.15v-12.75c-71.22-25.34-124.83-87-202.86-98.42-129.49-16.29-259.22-52.11-365.15-132.64-84.72-81-197.34-120.79-310.33-142.28,43-45.72,110.08-20.08,162.1-2.43,83.15,49.61,161,106.93,245.19,154.8,105.11,77.72,242,57.9,356.51,109.91,38.3,17.07,77.1,62.37,114.54,77.34v-14.89c-53-38.3-107.83-81.75-172.68-98.36-115.08-13.47-233.42-34.31-328.22-105.81-84.56-43-152.27-113.59-241.07-147.12-127.07-10.7,11.2-44.93,57.92-.76,121.1,67.4,231.6,172,374.27,187.77,92.6-3.33,169.6,40.61,246,85,21.09,4,45.63,30.82,63.79,40.67v-34.32c-100.19-55.18-199.85-127.47-319.35-117.09C2539,1544.7,2437.13,1468,2340.7,1400.71c-34.44-51.94-137.92-18-144.15-75.76,76.1-9.81,155.65,25.68,216.16,71.73,82,80.29,193.17,115.24,303,136.85,96.4,8.4,190.53,51.3,262.46,116.25v-22.32c-22.15-15.66-54.25-33.2-67.83-42.35-96-60.7-213.23-58-317.91-95.19-105.72-25.07-169.72-122.06-269.87-158.23-54.15-13.26-240.87-51.36-98-36.41,123.17,7.64,236.91,67.33,332.77,142.21,105.78,66.19,237.91,59,344.55,121.33,23.78,1,54.11,37.64,76.33,52.06v-24.26a1088.71,1088.71,0,0,0-137.41-71.1c-124.81-27.52-256-55-355-142.71-96.14-69.14-215.23-80.19-327.16-105.63-85.27-57.15,34.51-7.88,70.65-7,106.33,35.87,229.18,34.49,322.92,101.16,91.69,62.69,199.34,103.94,307.43,117.48,46.36,2,84.08,52.22,118.56,69.83v-18.88c-26.72-26.57-65.78-46.69-101.61-58.67-95.19-19.78-193.17-40.26-275.53-95.48-104.36-81.3-239.19-92.71-363.18-123.73-52.66-27.95-114.23-7.62-148.21-46-16.09-36.77,108.81,24.14,147.21,22.47,102.48,37.22,220.28,22.22,313.39,81.22,93.29,74.59,214.67,81.52,323,118.8,22.22,22.88,152.92,73.29,81.86,32.82-90.41-77-220.3-67.55-323.78-118.42-15.27-15.72-130.28-67.91-53.84-45.67,59,20.27,130.34,18.05,182.26,50.71,78.25,14.87,142.83,64,218.46,83.6v-18.05c-23.84-10-62.53-8.63-80.78-26.62-60.7-28.53-11.06-14.7,34.17-8.83,11.76,4.75,30.91,8.46,46.61,9.09v-28.43c-39.71-16.47-92.65-20.54-135.92-28.41-137.88-34.75-277.11-62.13-414.45-98.44-127.38-9-247.71-50.27-370.53-81.9-23.51-2.23-47.27-3.53-71.11-3.85q-9.69-.14-19.39-.06h0c-97,.89-194.86,18.46-283.47,57.68-187.89,61.08-364.78,152.86-559,193.55-118.3,11.51-232,46.25-350.14,57.38-141,23.06-285.79-18.66-426.15,8.41-107.25,51.19-209.25,119.55-324.47,151.22-9.41,2.58-17.08,5-23.54,7.27v22c25.68.24,64.53-6.49,85.11-22,116.94-32.76,212.18-124.53,334.21-138.7,164.93,4.53,332.19,15.34,494.09-25.79,168.71-17,333.77-63.17,492.54-119-164.43,64.27-332.56,124.41-509.4,143.25-139.6,28.75-281.17,11.93-422.22,17.23-127.41-2.74-227.67,82.42-342.13,123.3-39.24,19.62-93.06,23-132.2,38.8V1670c94.47-7.19,185.14-56.68,270.28-97.42,86.72-51.64,187-66.72,286.82-64.53,102.75,6.13,206.38,8.24,308.22-10.07,142.11-6,274.55-55.65,408.87-95.44,62.56-30.59,135.6-36.76,190.2-81.12,113.91-47.91,228.13-101.25,349.75-128.24,77-13,168.83-41.73,237.6,2.47-54.66-1.11-143.1,2.35-207.19,22.44-132.26,35.9-256,98.83-383.37,149.12-156.85,55.55-316.23,114.43-483,134.41a1853.24,1853.24,0,0,1-436.34,33.63c-151.06-15.14-274.14,78.25-405.09,133.65C105,1698.43,26,1688.26,0,1701.54v14.87c104.6-4.87,198.76-64.5,290.41-111.39,139.64-81.09,304.22-51.12,457.45-59,162.78-20.34,326.21-40.36,483.81-87.43,87.37-32.17,178.56-53.84,262.38-93.75,134.74-49.8,262.82-119.52,405.11-145.07,37.64-24.8,213.23-9.89,172.88,23.58-176.32-29.67-336.57,59.76-491.44,128.08-120.14,59.68-250.95,93-379.58,128.42-128.88,41.9-265,57.25-399.69,67.32-108.58,27.35-223.39-1.11-331,26.59-114.64,12.53-215.94,69.22-324,104.14C106.94,1729.53,43.14,1722.61,0,1739.13v15.21c78.37-15.32,153-46.13,228-73.87,88.82-44.43,183.88-65.44,280.39-84,172.13.19,342.48-17.24,512.16-41.11,100.2-18.95,197.46-45,294.25-76.6,186-39.18,346.81-145.67,526.55-203.11,89.49-23.16,220-56.94,289.81,16.72-169.33-6-341.48,20.79-493.35,97.19-48.32,33-146.49,33.74-168.13,80.7-124.84,49.55-267.08,65.73-399.75,97.45-181.19,44.39-369.87,44.61-554.74,59.22-121.28,8.22-234.57,51.86-346.15,97.22C124.53,1754,45.85,1765.64,0,1790.76v15.87c97.41-32,188.84-82,285.61-115.62,91.95-39.53,192.29-48.58,290.5-58.58,227.44-1.46,453.4-36.32,674.15-91,89.31-16.91-48.68,15.18-73.06,29.54-73.92,13.61-153.35,59.53-224.2,58.22-116.3,6.4-243.23,26.11-363.8,33.52-192.56-2.15-359,105.87-542,145.13-17.47-.42-34.25,5.06-47.16,11.83v19.42c5.82-2.25,12.79-5.34,21.09-9.47,144.68-32.41,278.7-99.16,421.75-137.15,123.67-20.06,250.09-23,375.11-38.87,104-9.41,20.54,4.73-29.87,11.46-132.42,12-262.63,42-392.57,71.14-122.34,37.83-243.57,83.53-368.6,111.93A147,147,0,0,0,0,1856.55v35.6c11.65-.64,26.8-5.23,43.89-15.94C248.05,1823.46,443.67,1736.43,654.7,1711c225.85-29.9,448.48-79,662.64-156.84,188.17-90.64,395.31-124.47,599.48-158.83,46.17-10,269.16-30.84,186.9,3.58-71.86-1.77-158.91,19.07-237.08,33.57-119.4,3.65-227.44,56-342.58,78-113.32,43.48-223,95.52-335.27,141.26C1016.87,1706.42,832.26,1710.87,661,1769c-90,39.39-192.67,20.21-282.87,53-93.75,19.59-185.22,48-274.37,83C78.5,1921.58,31.86,1922.42,0,1931.29v17.59c116.55-25.54,223-87.41,342-104.6,78.78-29.86,163.4-28.07,246.2-43,126.27-37.13,254.35-71.23,385.45-89.8,178.84-12.87,336.36-102.25,499.78-167.15,131.8-43.34,264.7-90.59,404.64-102.13,53.62-4.45,136.53-35,173.39-20.39,62.7-18.47-24,37.77-82.56,52.88,36.59,3.09,28.58,45.35-31.62,42.16-135.5,14.62-269.26,52.8-395,102.89-108.84,48.86-216.16,103.54-331.32,136.64-184.76,64.77-384.19,58.3-572.22,106.56-91.88,47.25-203.72,9-294.41,56.06-110.51,22-212.24,74.7-323.06,98.52-9.22,2-15.92,3.73-21.28,5.37v10.37c19.23.4,53.83-4.6,71.46-16.87,87.71-18.57,165.49-67.27,254.38-80.19,75.17-38.94,163-26.84,244.73-40.06,195.49-69.55,407.94-58.27,606.13-118.52,208.37-52.93,389.49-180.88,601.6-221.76,55.63-1.43,213.07-80.9,195,15.14-140.49,17.33-281.06,49.73-409.24,111.38-67.57,47.39-141,76.22-217.51,100.8-100.7,19.46-201,40.08-301.06,62.82-112.27-.57-217.45,35.71-323.24,67.2-76.81-12.82-140.46,36.1-210.85,52.15-143-8.51-272.76,58.51-408.41,91.32-24.8,17.78-71.94,9-103,13.47v18c148.25-17.06,285.27-91.64,433.53-110.49,105.26,20.48,191.2-64.58,295.29-51.46,96.5-36.91,197.2-70.1,302.78-68.09,107.43-16.13,213-43.1,319.68-62.9,123.89-35.26,223.07-124.67,348.43-155.61,84.13-26.37,188.68-57.54,267.27-47.66-26.65,71.46-130.61,28.46-188.12,61.56-140.19,20.17-238.26,140.17-376.1,166.82-87.15-3.46-168.51,33.21-253.76,30.33-65.54,20.73-137.37,15.61-206.33,34.9A3999.75,3999.75,0,0,1,326.6,2029.26C255.11,2060,181.1,2086.6,102.76,2093c-23.37,14.66-76,10.3-102.76,16.35v18.39c59-5.31,124.51-24.73,184.93-36.77,63.89-3.1,112.54-52.55,175.54-53.28,98.47-18.06,199-37.28,300.92-60.49,108-23.7,212.82-60.65,320.21-86.22,106.44-33,208.78,11.33,304,56.42,75.15,44.88,163.22,33.83,244.53,13.55,47-2.35,169.12-36.22,169.88,36.59-120.49-37.84-241.44,68-360.56,18.8-115.53-25.79-192.47-156.65-322.42-123.86-117,40.67-232.42,86.42-351.8,120.17-133.15,20-266,57.37-400.44,68.26-59.12,14.46-113.82,44.73-173.58,59.71-25.24-16.6-65-6.62-91.17,6.8v26.21c6.2-1.07,13.49-2.67,22.3-5.06,90.56,3.51,175.9-35,261.59-62.5,91.31-13.22,185.45-26.23,276.1-46.41m1742.49,190.72-1.46-.32c-.78.42-1.13,1.19,1.47.33Zm543.26,574,1.67.59C2847.59,2824.26,2846.35,2824.06,2845.74,2824.43Zm-600.51,17.75-1.23-.09C2244,2842.31,2244.32,2842.39,2245.23,2842.18Zm-218.93-37.35-1.54-.35a1.17,1.17,0,0,0,1.54.36Zm-57.4-1330.1c-7.28-.62-16.36.36-27.1,3.51C1949.36,1478.72,1958.69,1477.36,1968.9,1474.73Zm-27.1,3.51c-5-.31-9.19-1.38-12.35-3.47-136.93,20.76-280.82,37.54-404.22,104.49-90,35-176.85,89.29-272.25,104.94-142.9,62-298.73,75.17-451.57,91.9-102.66,25.65-206.79,46.06-308.26,75.18-131.57-.56-255.12,58.47-380.08,97.46C94.53,1962.08,33.48,1965.69,0,1971v16c161.87-21.83,307.88-114.74,472-122,131-25.32,259.26-68.58,392.36-85.46,225.52-11.51,440.62-88.31,644.36-181,124.06-70.53,269.58-88.68,408.63-110.55a149,149,0,0,1,24.43-9.76Zm122-298c5.86,0,30.8,18.1-.09,3.52C2062.06,1181.2,2062.39,1180.24,2063.75,1180.24Zm11.14,120.84c31.09.45,59,6.79,79.65,25.34-139.65-8.46-282.31-2.45-413.75,49.65-73.69,41-153.41,63.09-235.93,84.77-.88-9.83,49.18-24.22,68.87-29.57,98.54-43.38,206.84-94.56,318.43-112.34C1944.83,1320.82,2015.55,1300.22,2074.89,1301.08Zm-647.13,28.52c2.2,0,.78,1.38-9.66,5.71C1400.56,1336.77,1422.93,1329.67,1427.76,1329.6Zm591.79,5.92c77.67.07,190.07,13.67,99.93,16.17-138.46-13.9-275.6,33.5-411.47,58.06h0l-6.3-.37c79.81-41.44,171-61.56,260.54-68.5,9.39-3.89,31.41-5.37,57.3-5.35Zm19.11,93.93a1.53,1.53,0,0,0-.7,0c-1.78.47-4,3.58-5.72,11.57,10.62-.77,9.8-11.16,6.42-11.61ZM2028,1448.26a24.34,24.34,0,0,0-5.32,1.12C2015.13,1454.8,2030.73,1448.41,2028,1448.26Zm-527.28,1.25c.64-.08.53.87-1.58,3.92C1494.35,1454.84,1499.34,1449.69,1500.74,1449.51Zm519.48,45.74c.65,0,1,.64.71,2.28C2014.16,1500.14,2018.29,1495.14,2020.22,1495.25Zm-23.65,41.65c.56.07.73.48-.61,1.41C1993.65,1537.55,1995.64,1536.77,1996.57,1536.9ZM919.65,1643.16c2.71.11,2.88.76-5.71,2.29C903.58,1644.27,915.13,1643,919.65,1643.16Zm-15.55,1.7c5,.38,5.66,2.32-12.83,4.7C889.88,1645.67,899.12,1644.48,904.1,1644.86Zm990.73,2.1c18.54.33,18.79,6-30.14,21.58-74.93,45.24-165.8,45.44-239.48,94-95.58,76.65-220.41,108.21-341.23,87.69,27-17.62,122.44-7.78,173.55-31.7,121.21-49.78,221.68-149.1,357.64-161.3C1839.44,1651.6,1876.28,1646.62,1894.83,1647Zm-1007.23.23c.45-.07.33.18-1,1C879.89,1650.44,886.26,1647.39,887.6,1647.19Zm972.56,52.51a14.82,14.82,0,0,1,2.8.16c123.33,55.74,273,28,396.84,90.13-150,14.92-315.05,14.69-450.52-60.89,7.29-9.65,35.91-28.86,50.88-29.39ZM1749.78,1725c18.27.14-23.87,32-50,73.31-75.5,35.76-167,61.46-254,66,95-21.61,164.34-85.51,250.27-123.56,30.23-11,46.62-15.81,53.76-15.76Zm189.49,6.7a1.19,1.19,0,0,0-.69,0,11.62,11.62,0,0,0-1.78.63c-1.08,3,3.26-.21,2.47-.64Zm-249.61,88.89c.92.16,1.82,1.13-.05,2.42-1.81-1.94-.87-2.58.05-2.42Zm-1.05,4.31c6.08,98.27-62.56,63.23-141.07,62.89-103.78,22.82-215.64,26.32-313.15-21.69,49.35-1.5,131.45-1.78,190.2,5.42,91.05,22.81,178.2-36.2,264-46.62Zm-530,40.77c23.25-.48,51.7,5.55,72.3,12.25,104.67,56.33,227.18,39.21,339.24,23,39.57,3.52,121.82-11,121.15,50-92.41-34.44-189.55,12.45-284.45,16.65-98.72-8-181.92-69.87-275.51-96.63C1138.51,1867.42,1148,1865.86,1158.58,1865.65Zm-103.35,209.82c2.5,0,5,0,7.51.07a214.11,214.11,0,0,1,91.13,23.14c121,59.26,259.38,62.59,391.86,61,51.61-5.9,170.11-21.23,71.93,33-64.13,4.93-159.65-10.79-237.38-1.67C1255.57,2192,1148,2101.78,1023,2118.2c-51.54,26.7-108.6,13.86-163.86,23.3,1.87-9.08,65.15-25.48,87.69-35.25a214.27,214.27,0,0,1,108.4-30.77Zm-759.87,26.25c.94-.13,2.91.65.61,1.41C294.62,2102.2,294.81,2101.79,295.36,2101.72Zm762.2,26.28c66.88-.95,133.45,37.48,197.88,52.1,105,45.07,221.43,5,328,30.77-68.28,37.75-148.34,22.77-222.9,22.7-71.37,1-118.6-30.35-179.11-59.46-62.77-28.28-124.88,9.07-176.12-32.21h0l-4-2.45a149.34,149.34,0,0,1,56.2-11.44Zm33.89,43.82c55.86.43,203.86,46.91,101.16,53.75-34-22.81-88.11-16.75-118-39.89-17.2-.27-3.86-15.35,2.82-12.42,3.43-1,8.23-1.49,14-1.44Zm20.69,38.52c9.6-.44,30.65,9,36.29,11.42,63,20.87-31.52,49.11-39.75-3.07C1105.78,2212.79,1107.78,2210.54,1112.14,2210.34Zm522.49,6.95c40.22.58,81.17,21.15,117,35,80.48,55.06,174.23,80,270.09,93.29,106.92-.85,200.4,54.14,298.45,81.8,100.65.75,193.7,38.37,292.85,51.35,19.23,7.78,107.54,31.33,35.92,25.86-92.06-3.56-195.61,7.18-280.76-25.68-95.12-41.42-198.13-70.78-298.95-99.22-65.55-23-159.37-24.33-208.32-44.07-78.62-66.08-185.13-86.49-285.69-96.38-.38,6-20.06-24.75,5.53-7.83,17.44-10.51,35.57-14.38,53.85-14.11Zm-388.94,22.64c44.12-.44,78.55,28,126.5,37,133.21,47,277,15,411.91,40.81,142.18,34.7-35.52,31-97.65,25.47-164.53,16.4-325.06-29.81-474.22-93-9.69-1.37,3.11-15.92,7.8-6.82a103.88,103.88,0,0,1,25.66-3.52Zm286.57,8.23c82,11.65,171.66,12.43,247.76,52.6-143.8-14.79-294.91,6.64-433-46.36-9.81-12.49,23.17,1.25,24-4.69,33.77,8.54,112.89,4.87,161.21-1.55Zm-191.67.51c1.45.18,4.3,3.24.63,3.91C1339.36,2249.48,1339.72,2248.56,1340.59,2248.67Zm-145.89.43c3.2.3,5.56,3.35,5.83,11.13,45.77,16.94,93.29,38.31,132.72,49.66,173.38,68.18,364,41.92,543.75,49.29,154.29,16.62,303.78,63.52,448.48,118.07-130.16-14.53-249.91-81-381.92-88.39-175.71-19.05-356.13,26-528.48-23.23-87.69-9.63-163.35-62.07-240.4-99.76,1.86-4.8,13-17.43,20-16.77Zm160,21.41c.56.07.74.48-.61,1.41C1351.75,2271.16,1353.73,2270.38,1354.66,2270.51Zm-216.81,42.66c115.77,49.76,232.06,121.75,364.33,122.49,140.69,23.51,285.77-4.32,426,19.21,87.51-2.4,168.55,31.11,252.89,45.13,65.31,21.51,131.07,37.54,197.1,51.48,19.9,2.79,46.67,9,76.57,13.67,24.37-5.35,84.25-1.62,115.19,2.61,42.38-3.34,84.6-1,126,5.54-.31,1,1.75,1,2.29.37a727.06,727.06,0,0,1,113.13,28.1c57.33,19.79-2.48,8.32-29.81,1.31-90.44-32.57-187.5-31-283.83-31.13-99.18,10.1-192.14-32.47-289.13-46.07-218.9-75.31-453.15-42.43-679.51-70.5-147.32,19.4-264.37-89-399.88-120.63.45-6.87,2-18,8.68-21.58ZM2522,2314.4a1.13,1.13,0,0,1,1.2.51C2519.08,2316.14,2520.6,2314.53,2522,2314.4Zm-2220.61,8c.81,0,1.06.38-.93,1.28C297.18,2323.13,300.08,2322.33,301.43,2322.39Zm558.9,85.72c-1.44.14-3,1.74,1.21.51A1.18,1.18,0,0,0,860.33,2408.11Zm340.77,27.65c21.63-1.78,62,28,86.85,34.61,23,18.36,68,23.85,84.08,36.74-70.91-11.42-121.55-17.63-179-68.51a15,15,0,0,1,8-2.85Zm1418.64,6.5c.68.07,1.16.8-.57,2C2618.21,2442.78,2619.06,2442.2,2619.74,2442.26Zm86.53,65.93c.34.09.62.46.65,1.35C2703.77,2510.32,2705.27,2507.94,2706.27,2508.19Zm-1391.65,1c17.18.7,67.57,16.52,79.74,25.73,85.73,35.22-56.59,5.27-83.21-20.6-4.3-3.92-2.26-5.37,3.47-5.13Zm-17.55,24.63a17.16,17.16,0,0,1,2,.07c10.39,1,.6,13-29.13,11.1,1.68.59-2.63-6.42,2.43-3.4,11.45-5.57,19.7-7.64,24.74-7.76Zm-36,9.82c4.89.34,10.48,4.7-3.65,5.38C1255.44,2544.68,1258.13,2543.44,1261.07,2543.65Zm184,9.72c.63-.11,1.53.83,2.44,4C1443.66,2559,1443.73,2553.62,1445.11,2553.37Zm1511.24,1.23c-.54.07-.72.48.52,1.49C2959.08,2555.36,2957.24,2554.49,2956.35,2554.6Zm-113,59.83a.48.48,0,0,1,.37,0c.89.35,2.1,2.73-.4,2.55-.42-1.69-.29-2.4,0-2.56Zm-1447.44.24c16.42.16,25.8,2.27-6.88,10.38-111.89,3-213.79,51.49-315.61,95.07C927,2744.29,791.15,2803,647.76,2837.59,475.49,2910.32,290,2968.2,101.52,2957.22c42-14.89,104.07-15.25,153.36-23.83,120.15-13.13,226.86-71.44,341-106.5,86.83-5.86,164.65-55,250.23-70.27,114.28-15.2,218.41-66.12,327.37-98.51,66.17-9.33,128.33-35.28,192.85-42.49,7.36-.44,19.75-1,29.61-.95Zm-341.51,1.58c22.8.51-93.41,26-117.54,38.57-94.31,37.47-194.29,53.85-291,80.33,22.48-20.46,70.9-35.83,100.53-59.66,93.5-31.51,192.32-41.95,289-57.81,9.61-1.06,15.7-1.5,19-1.43ZM1301.7,2649c.42,0,.22.27-1.31,1C1293.64,2651.22,1300.45,2649,1301.7,2649Zm648.45,100.3c26.95.56,61.08,9.85,87.88,16.75,45,15.83,69.41,17.41,113.48,30.28,41.17,11.3.74-2.07-22.43,2.55-66-13.44-132.82-26.92-196.26-48.44a89.11,89.11,0,0,1,17.33-1.14ZM2338,2780.87a.74.74,0,0,1,.81.62C2335.45,2782.58,2336.86,2780.94,2338,2780.87Zm12.29,1c1.35-.05,4.25.74.93,1.28C2349.19,2782.29,2349.44,2781.94,2350.25,2781.9ZM2978.13,2832c-1.06.26-.47,1.6,0,1.94Zm-352.3,4.36a1.15,1.15,0,0,1,1.21.51C2622.87,2838.12,2624.39,2836.52,2625.83,2836.39ZM1918.77,2852c.93-.12,2.91.64.61,1.41C1918,2852.42,1918.22,2852,1918.77,2852Zm-711.52,7.28c-.65.09-2.14.79-4.91,2.45C1196.93,2869.67,1210.06,2858.83,1207.25,2859.23Zm-8.4,9.63a2.43,2.43,0,0,0-1.06.15C1197,2873.31,1200.51,2869.1,1198.85,2868.86Zm1693,7.69c.82.16,2.53,1.37.5,1.38C2891.2,2876.75,2891.37,2876.46,2891.86,2876.55ZM2322.26,2888c5.26-.18,15,.54,1.45,1.46C2317.58,2888.54,2319.11,2888.1,2322.26,2888Zm109.26,12.55c1.07,0,1.4.33-1.24,1.19C2425.9,2901.29,2429.73,2900.5,2431.52,2900.54Zm-1278.44,7.18c-.16-.12-.6,0-1.49.52C1151.57,2910.37,1153.58,2908.08,1153.08,2907.72Zm6.89,22.83c.93-.12,2.91.65.61,1.42C1159.23,2931,1159.41,2930.63,1160,2930.55Zm-3.51.67c8.09.81,9.92,14.84-9,4.27,2.61-2.74,5.1-4,7.28-4.24a8.13,8.13,0,0,1,1.7,0Zm-86,8c.33.07.19.46-1,1.44C1064.24,2941.78,1069.46,2939,1070.45,2939.19Z"/></g><path id="path2407-0" class="cls-3" d="M2902.64,2056.05c-813.2,211-162.65,374.71-2446.34,633.27-399.25,50.12-356,100.39-446.63,194.91-13.49,20-10.54,103-5.09,120.28H2978.13V2062.75A417.18,417.18,0,0,0,2902.64,2056.05Z"/><rect class="cls-1" x="943.59" y="1867.26" width="1090.95" height="288.68"/><g id="THE_SEA" data-name="THE SEA"><g class="cls-4"><path d="M1188.51,1988.74h-17.66v-7.44h43.55v7.44h-17.66v53.17h-8.23Z"/><path d="M1274.58,1981.3h8.23v25h30.82v-25h8.23v60.61h-8.23v-27.8h-30.82v27.8h-8.23Z"/><path d="M1387.67,1981.3h37v7.44H1395.9v17.76h22.86v7.44H1395.9v20.52h29.52v7.45h-37.75Z"/><path d="M1565.44,2042a43.42,43.42,0,0,1-8.92-2.72l1.13-8.75a62.18,62.18,0,0,0,9.78,3.64,39.19,39.19,0,0,0,10.82,1.55c4,0,7.18-.73,9.4-2.2a7.42,7.42,0,0,0,3.33-6.63,8.79,8.79,0,0,0-1.69-5.5,12.93,12.93,0,0,0-4.93-3.72,70,70,0,0,0-9-3.25,56.78,56.78,0,0,1-9.79-3.72,16.75,16.75,0,0,1-6.27-5.45,15.09,15.09,0,0,1-2.38-8.75,14.4,14.4,0,0,1,5.67-11.86q5.67-4.5,16-4.51a44.29,44.29,0,0,1,10.53,1.22,48.05,48.05,0,0,1,8.7,2.94l-.87,8.75a40.82,40.82,0,0,0-9.35-4.16,33.41,33.41,0,0,0-9.35-1.3c-3.76,0-6.74.69-9,2.08a7,7,0,0,0-3.34,6.41,7.56,7.56,0,0,0,1.52,4.85,11.94,11.94,0,0,0,4.37,3.24,61.91,61.91,0,0,0,8,2.9q10.21,3.12,15.24,7.41t5,11.82a14.6,14.6,0,0,1-6,12.42q-6,4.47-17.66,4.46A52.68,52.68,0,0,1,1565.44,2042Z"/><path d="M1669.78,2034.46h29.53v7.45h-37.75V1981.3h37v7.44h-28.75v17.76h22.86v7.44h-22.86v20.52"/><path d="M1792.83,2025.54h-23.21l-5.8,16.37h-8.66l21.74-60.61h8.65l21.74,60.61h-8.66Zm-2.6-7.44-9-25.29-9,25.29Z"/></g></g><rect class="cls-1" x="947.59" y="159.56" width="1082.96" height="243.59"/><g id="Grupo_1" data-name="Grupo 1"><g id="Trazado_1" data-name="Trazado 1"><path d="M1100.52,254.84a13.1,13.1,0,0,1,9.29,3.31,11.14,11.14,0,0,1,3.57,8.53,11,11,0,0,1-3.62,8.54,13.72,13.72,0,0,1-9.53,3.27h-7.59v17.08h-7.87V254.84Zm-2,17.49a7.52,7.52,0,0,0,4.91-1.44,5.18,5.18,0,0,0,1.76-4.27q0-5.62-7.23-5.63h-5.36v11.34Z"/></g><g id="Trazado_2" data-name="Trazado 2"><path d="M1172.55,254.84l18,40.73h-8.31l-4.22-9.91H1159.9l-3.93,9.91h-8.26l16.8-40.73Zm-10.27,24.84h13.15l-6.9-16.12Z"/></g><g id="Trazado_3" data-name="Trazado 3"><path d="M1246.08,254.84a13.87,13.87,0,0,1,9.13,2.91,9.12,9.12,0,0,1,3.53,7.28,8.48,8.48,0,0,1-1.48,4.93,10.07,10.07,0,0,1-4.27,3.39v.34a11.65,11.65,0,0,1,6.63,3.81,10,10,0,0,1,2.38,6.66,10.8,10.8,0,0,1-1.74,6,10.58,10.58,0,0,1-4.81,4,17.94,17.94,0,0,1-7.24,1.34h-17.06V254.83Zm-2.1,16.91a7.54,7.54,0,0,0,4.93-1.49,5.06,5.06,0,0,0,1.81-4.14,4.63,4.63,0,0,0-1.67-3.75,6.55,6.55,0,0,0-4.37-1.38H1239v10.76Zm1.83,17.67a10.19,10.19,0,0,0,6-1.5,5.16,5.16,0,0,0,2-4.42,4.85,4.85,0,0,0-2-4.1,9,9,0,0,0-5.44-1.5H1239v11.52Z"/></g><g id="Trazado_4" data-name="Trazado 4"><polygon points="1312.35 254.84 1312.35 289.42 1332.12 289.42 1332.12 295.57 1304.48 295.57 1304.48 254.83 1312.35 254.84"/></g><g id="Trazado_5" data-name="Trazado 5"><path d="M1393,254.31a24.59,24.59,0,0,1,11.39,2.61,20.1,20.1,0,0,1,8,7.52,20.58,20.58,0,0,1-8,29,25.82,25.82,0,0,1-23-.06,20.17,20.17,0,0,1-10.93-18.14,20.5,20.5,0,0,1,2.88-10.52,20,20,0,0,1,8-7.67A24.31,24.31,0,0,1,1393,254.31Zm-14.37,20.91a14.46,14.46,0,0,0,1.83,7.28,12.75,12.75,0,0,0,5.12,5,15.37,15.37,0,0,0,7.42,1.78,14.19,14.19,0,0,0,10.31-3.94,13.55,13.55,0,0,0,4-10.15,14.65,14.65,0,0,0-1.82-7.3,12.61,12.61,0,0,0-5.13-5,16.44,16.44,0,0,0-14.9,0,12.49,12.49,0,0,0-5.09,5,14.8,14.8,0,0,0-1.8,7.31Z"/></g><g id="Trazado_6" data-name="Trazado 6"><path d="M1526.85,254.84a13.1,13.1,0,0,1,9.29,3.31,11.14,11.14,0,0,1,3.57,8.53,11,11,0,0,1-3.62,8.54,13.69,13.69,0,0,1-9.53,3.27H1519v17.08h-7.88V254.84Zm-1.95,17.49a7.52,7.52,0,0,0,4.91-1.44,5.22,5.22,0,0,0,1.77-4.27q0-5.62-7.24-5.63H1519v11.34Z"/></g><g id="Trazado_7" data-name="Trazado 7"><path d="M1598.86,254.84l18,40.73h-8.3l-4.22-9.91h-18.11l-3.93,9.91H1574l16.8-40.73Zm-10.26,24.84h13.15l-6.9-16.12Z"/></g><g id="Trazado_8" data-name="Trazado 8"><path d="M1672.15,254.84a13.64,13.64,0,0,1,9.36,3.17,10.5,10.5,0,0,1,3.61,8.29,10.35,10.35,0,0,1-1.79,6.05,11.92,11.92,0,0,1-5.33,4.07,11.68,11.68,0,0,1,3.47,2.86,37,37,0,0,1,3.77,6.09q3.72,7.41,5.54,10.2H1682a48.81,48.81,0,0,1-2.45-4.28,92,92,0,0,0-5-8.76,11.88,11.88,0,0,0-3-3.21,6,6,0,0,0-3.36-.95h-2.86v17.2h-7.87V254.84Zm-1.78,17.38a7.19,7.19,0,0,0,4.86-1.54,5.33,5.33,0,0,0,1.76-4.21,5,5,0,0,0-1.75-4.19,7.88,7.88,0,0,0-5-1.38h-4.9v11.34Z"/></g><g id="Trazado_9" data-name="Trazado 9"><polygon points="1758.09 254.84 1758.09 260.99 1739.63 260.99 1739.63 271.69 1757.3 271.69 1757.3 277.82 1739.63 277.82 1739.63 289.4 1758.49 289.4 1758.49 295.55 1731.75 295.55 1731.75 254.81 1758.09 254.84"/></g><g id="Trazado_10" data-name="Trazado 10"><path d="M1809.72,254.84V294a15.13,15.13,0,0,1-3.5,10.46,11.83,11.83,0,0,1-9.27,3.92h-.77a5,5,0,0,1-.77-.06l-.55-6.79q7,0,7-8.19V254.84Z"/></g><g id="Trazado_11" data-name="Trazado 11"><path d="M1875.35,254.84l18,40.73h-8.31l-4.22-9.91h-18.1l-3.94,9.91h-8.25l16.8-40.73Zm-10.26,24.84h13.15l-6.9-16.12Z"/></g></g></g></g></svg>